<?xml version="1.0" standalone="no"?>
<!DOCTYPE svg PUBLIC "-//W3C//DTD SVG 20010904//EN"
 "http://www.w3.org/TR/2001/REC-SVG-20010904/DTD/svg10.dtd">
<svg version="1.0" xmlns="http://www.w3.org/2000/svg"
 width="310.000000pt" height="310.000000pt" viewBox="0 0 310.000000 310.000000"
 preserveAspectRatio="xMidYMid meet">
<metadata>
Created by potrace 1.14, written by Peter Selinger 2001-2017
</metadata>
<g transform="translate(0.000000,310.000000) scale(0.100000,-0.100000)"
fill="#000000" stroke="none">
<path d="M1771 2812 c-10 -10 -16 -10 -27 -1 -12 10 -15 10 -12 -2 2 -8 -3
-13 -9 -11 -7 1 -13 -3 -13 -9 0 -6 -6 -9 -12 -7 -7 3 -19 -1 -26 -9 -7 -7
-22 -13 -32 -13 -10 0 -22 -5 -25 -11 -6 -9 -50 -31 -67 -33 -4 -1 -15 -8 -25
-16 -10 -8 -25 -15 -33 -15 -12 0 -15 -13 -15 -60 0 -33 -4 -63 -10 -67 -6 -5
-6 -8 1 -8 14 0 14 -30 0 -30 -6 0 -5 -4 3 -9 11 -7 9 -12 -10 -22 -13 -7 -27
-12 -31 -11 -5 1 -8 -3 -8 -9 0 -5 -4 -7 -10 -4 -5 3 -10 1 -10 -5 0 -6 -4 -8
-10 -5 -5 3 -10 1 -10 -4 0 -6 -3 -10 -7 -9 -5 1 -24 -6 -44 -15 -33 -17 -35
-20 -33 -63 2 -34 -2 -49 -18 -64 -12 -11 -25 -17 -30 -14 -4 3 -11 -2 -14
-10 -3 -9 -10 -13 -15 -10 -5 3 -9 0 -9 -5 0 -6 -7 -11 -15 -11 -8 0 -15 -4
-15 -10 0 -5 -5 -10 -11 -10 -7 0 -22 -11 -34 -24 -13 -14 -26 -22 -29 -19 -3
4 -15 -5 -27 -18 -12 -13 -26 -23 -31 -21 -5 1 -7 -1 -5 -5 7 -11 -19 -34 -28
-25 -4 4 -5 0 -3 -8 2 -8 -3 -14 -10 -12 -8 1 -11 -1 -8 -6 6 -10 -35 -48 -47
-44 -5 1 -5 -2 -2 -8 4 -6 -2 -19 -12 -28 -10 -9 -33 -39 -51 -67 -17 -27 -36
-56 -42 -62 -6 -7 -7 -13 -3 -13 4 0 -1 -7 -11 -15 -11 -8 -16 -15 -12 -15 5
0 1 -11 -8 -25 -9 -14 -14 -25 -10 -25 4 0 1 -7 -6 -15 -7 -8 -10 -15 -7 -15
3 0 -3 -17 -13 -37 -18 -37 -18 -38 2 -49 12 -6 30 -9 41 -6 15 4 18 2 12 -9
-8 -12 -6 -12 8 0 10 8 17 9 17 3 0 -11 38 -10 57 1 6 4 14 4 17 -1 4 -7 60
-8 76 -2 3 1 10 1 15 0 47 -10 56 -10 50 1 -6 8 -2 8 14 0 16 -9 21 -9 21 1 0
8 3 9 8 3 4 -6 16 -11 27 -11 11 0 23 5 27 11 5 6 8 6 8 0 0 -6 18 -11 40 -11
26 -1 37 3 33 10 -4 6 0 5 9 -2 14 -11 19 -9 32 10 9 12 16 18 16 13 0 -5 8 2
17 15 10 14 16 29 15 35 -2 5 0 7 4 3 4 -4 17 4 30 19 24 28 37 83 20 83 -7 0
-7 3 -1 8 6 4 10 65 10 147 0 127 2 140 17 139 10 -1 15 3 11 9 -4 6 0 8 11 4
10 -4 15 -3 11 3 -6 9 8 14 28 11 4 0 7 4 7 10 0 5 4 8 9 5 5 -4 11 -1 13 5 2
6 18 13 36 15 26 3 32 0 32 -16 0 -11 -6 -20 -12 -20 -9 0 -10 -2 -2 -8 6 -4
10 -24 9 -44 -2 -25 1 -36 8 -31 6 4 7 1 2 -7 -13 -21 -15 -81 -2 -73 6 4 7 1
2 -7 -14 -22 -15 -81 -1 -73 8 5 8 3 1 -8 -6 -8 -10 -21 -9 -29 1 -8 2 -21 3
-28 1 -9 8 -11 21 -7 13 4 20 2 20 -7 0 -8 3 -9 8 -3 9 13 52 15 52 3 0 -5 6
-6 13 -1 17 11 107 10 107 0 0 -5 6 -4 13 2 8 6 17 8 20 4 10 -9 10 -15 11
464 1 237 5 435 9 439 4 4 7 2 7 -4 0 -7 12 -12 26 -12 14 0 23 -4 20 -8 -2
-4 5 -9 17 -9 12 -1 23 -7 25 -13 2 -5 8 -8 13 -4 5 3 12 -1 15 -10 3 -8 11
-13 18 -10 7 3 25 -7 42 -21 24 -21 27 -27 14 -35 -10 -6 -11 -10 -3 -10 14 0
13 -26 -1 -49 -6 -10 -5 -12 2 -7 16 10 15 -7 0 -23 -11 -11 -10 -13 0 -7 14
8 12 -19 -2 -43 -6 -10 -5 -12 2 -7 7 4 12 2 12 -3 0 -6 -6 -11 -12 -11 -10 0
-10 -2 0 -9 15 -9 15 -20 1 -38 -7 -7 -6 -14 2 -18 8 -6 7 -10 -2 -16 -9 -6
-10 -9 -2 -9 12 0 12 -17 0 -37 -4 -6 -3 -14 3 -18 5 -3 10 -11 10 -16 0 -6
-6 -7 -12 -3 -10 6 -10 5 -1 -7 7 -9 9 -20 3 -29 -5 -9 -5 -19 1 -26 11 -14 8
-36 -6 -46 -7 -5 -7 -11 0 -15 12 -9 13 -28 3 -39 -4 -4 -3 -13 2 -20 12 -14
10 -36 -5 -46 -6 -5 -6 -11 2 -19 8 -8 9 -18 3 -30 -7 -12 -6 -20 1 -25 8 -4
7 -9 -2 -15 -9 -6 -10 -9 -2 -9 12 0 12 -24 0 -36 -4 -4 -2 -13 4 -21 9 -10 8
-13 -2 -13 -12 0 -12 -2 -1 -9 17 -11 17 -21 0 -32 -8 -6 -9 -9 -1 -9 6 0 10
-8 9 -17 -3 -19 25 -52 38 -45 5 3 6 -2 3 -12 -4 -9 -3 -15 2 -11 5 3 30 -16
55 -41 41 -40 49 -43 45 -18 0 4 5 11 13 15 11 7 11 9 -1 9 -10 0 -11 3 -2 14
8 9 8 16 2 20 -13 8 -10 46 4 46 5 0 4 4 -3 9 -17 11 -17 21 0 32 8 6 9 12 3
17 -12 8 -13 27 -3 38 4 4 3 13 -2 20 -12 14 -10 36 5 47 7 4 7 10 0 15 -12 8
-13 27 -3 38 4 4 3 13 -2 20 -12 14 -10 36 5 47 7 4 7 10 0 15 -12 8 -13 27
-3 38 4 4 3 13 -2 20 -12 14 -10 36 5 47 7 4 7 10 0 15 -12 8 -13 27 -3 38 4
4 3 13 -2 20 -12 14 -10 36 5 47 7 4 7 10 0 15 -12 8 -13 27 -3 38 4 4 3 14
-4 21 -15 19 10 37 29 21 7 -5 20 -8 28 -4 9 3 13 2 10 -4 -3 -6 1 -10 9 -10
9 0 16 -5 16 -11 0 -5 4 -8 9 -4 12 7 50 -32 47 -48 -1 -7 -5 -18 -9 -24 -5
-8 -4 -13 2 -13 13 0 10 -22 -4 -32 -7 -5 -6 -8 0 -8 11 0 12 -81 1 -98 -3 -6
-2 -13 2 -16 10 -6 8 -48 -2 -65 -4 -5 -3 -12 2 -15 10 -6 9 -67 -2 -84 -4 -7
-3 -12 3 -12 7 0 7 -8 1 -25 -5 -14 -6 -25 -1 -25 9 0 7 -62 -3 -78 -3 -6 -2
-13 2 -16 10 -6 8 -48 -2 -65 -4 -5 -3 -12 2 -15 10 -6 9 -67 -2 -84 -4 -7 -3
-12 3 -12 7 0 7 -8 1 -25 -5 -14 -6 -25 -1 -25 4 0 8 -7 8 -15 0 -8 -5 -15
-11 -15 -6 0 -5 -4 2 -8 9 -7 10 -15 3 -35 -8 -20 -7 -27 2 -27 8 0 8 -3 -2
-9 -8 -5 -9 -10 -3 -12 6 -2 13 -25 15 -52 3 -26 2 -45 -2 -43 -4 3 -8 -1 -8
-9 0 -8 3 -12 7 -10 7 4 4 -131 -4 -151 -3 -7 -1 -16 3 -19 5 -3 5 -20 1 -39
-4 -19 -5 -37 -2 -40 9 -9 12 -57 3 -52 -4 3 -8 -1 -8 -9 0 -8 3 -12 7 -10 7
4 4 -131 -4 -151 -3 -7 -1 -16 4 -19 11 -7 -4 -60 -17 -60 -6 0 -15 -3 -19 -7
-4 -5 -16 -8 -26 -8 -12 0 -16 -4 -12 -12 4 -7 3 -8 -4 -4 -6 4 -26 0 -43 -9
-23 -12 -29 -13 -23 -3 6 10 5 11 -8 1 -8 -7 -18 -10 -21 -6 -4 3 -7 1 -7 -5
0 -6 -7 -9 -15 -6 -9 4 -15 0 -15 -7 0 -11 -3 -11 -10 1 -5 8 -10 11 -10 5 0
-12 -51 -12 -70 0 -8 5 -11 4 -7 -2 9 -15 -29 -23 -42 -10 -7 7 -11 7 -11 1 0
-5 -9 -10 -20 -10 -11 0 -20 3 -20 7 0 3 -15 6 -33 6 -18 -1 -40 2 -50 6 -10
4 -17 2 -17 -5 0 -7 -4 -7 -12 -1 -7 5 -29 10 -48 12 -19 2 -41 8 -47 13 -9 7
-13 7 -13 -3 0 -10 -3 -10 -12 -1 -7 7 -25 12 -40 12 -15 0 -28 4 -28 8 0 4
-10 8 -22 9 -13 1 -34 4 -48 8 -14 4 -31 7 -37 7 -7 1 -13 4 -13 7 0 3 -11 7
-25 8 -14 1 -36 3 -50 4 -13 1 -22 5 -20 10 3 4 -6 6 -20 3 -14 -2 -25 0 -25
5 0 6 -9 8 -20 6 -11 -2 -20 0 -20 5 0 5 -7 7 -15 4 -8 -3 -20 -2 -26 2 -7 4
-29 8 -48 9 -20 1 -38 3 -41 5 -3 1 -18 1 -34 0 -21 -1 -26 2 -20 12 6 10 4
10 -9 -1 -9 -7 -17 -9 -17 -5 0 11 -162 10 -178 0 -7 -4 -12 -2 -12 4 0 6 -7
4 -16 -5 -12 -12 -19 -13 -24 -5 -6 9 -9 9 -15 1 -3 -7 -15 -9 -26 -6 -11 4
-19 2 -19 -5 0 -7 -8 -10 -20 -7 -11 3 -20 2 -20 -3 0 -4 -7 -11 -16 -14 -10
-4 -13 -2 -8 7 6 8 3 8 -9 -1 -9 -8 -20 -11 -26 -8 -5 3 -11 -1 -15 -9 -3 -8
-13 -15 -22 -15 -9 0 -30 -10 -47 -22 -18 -13 -28 -16 -23 -7 4 7 -1 5 -11 -7
-10 -11 -24 -19 -31 -16 -6 2 -12 -1 -12 -8 0 -6 -5 -8 -10 -5 -6 3 -13 -1
-16 -9 -3 -9 -10 -13 -15 -10 -5 3 -12 -2 -15 -10 -3 -9 -11 -16 -16 -16 -6 0
-19 -9 -29 -21 -9 -11 -21 -21 -26 -22 -15 -3 -61 -56 -55 -63 4 -4 -1 -4 -10
-1 -12 4 -18 1 -18 -8 0 -8 -7 -15 -15 -15 -14 0 -20 -12 -16 -33 1 -5 -3 -6
-9 -2 -5 3 -13 -1 -16 -9 -3 -9 -10 -13 -15 -10 -8 5 -13 -9 -10 -28 0 -5 -3
-8 -9 -8 -15 0 -50 -42 -43 -53 4 -6 0 -8 -11 -4 -9 4 -15 3 -12 -2 3 -5 -1
-12 -10 -15 -17 -6 -10 -26 9 -26 8 0 7 3 -2 9 -11 7 -9 10 7 15 12 4 32 20
45 36 14 16 28 27 31 24 3 -2 4 -1 1 3 -3 3 14 20 38 37 23 17 48 36 55 43 7
7 20 13 28 13 8 0 12 4 9 10 -6 9 1 12 22 9 3 0 10 6 15 15 5 9 13 14 19 11 5
-4 9 -2 9 3 0 13 99 53 112 46 7 -4 8 -2 4 4 -4 7 -2 12 3 12 21 0 26 2 39 12
6 6 12 7 12 3 0 -4 6 -3 13 3 10 9 43 18 97 25 8 2 21 6 28 10 7 5 12 3 12 -3
0 -7 5 -8 13 -3 14 9 287 12 287 3 0 -4 7 -7 15 -7 8 0 15 5 15 10 0 6 9 2 20
-8 13 -12 20 -14 20 -5 0 9 4 9 13 3 6 -6 20 -9 30 -8 9 2 17 0 17 -4 0 -4 16
-8 36 -9 20 -1 41 -5 48 -10 6 -4 27 -9 46 -11 19 -2 41 -8 49 -14 8 -7 16
-11 18 -9 10 7 43 1 38 -7 -3 -6 3 -8 14 -6 10 2 30 -3 45 -10 14 -8 26 -10
26 -4 0 5 8 5 20 -1 11 -5 29 -15 41 -21 17 -8 19 -8 13 3 -4 8 1 6 12 -3 10
-9 25 -14 33 -11 8 3 11 0 7 -7 -5 -7 -1 -9 9 -5 8 4 21 2 28 -3 6 -4 26 -8
42 -7 17 1 33 -3 36 -8 3 -5 21 -10 40 -10 19 0 39 -3 44 -7 12 -7 22 -8 78
-13 23 -2 45 -7 49 -13 5 -6 8 -5 8 4 0 11 3 11 15 1 12 -10 15 -10 15 0 0 9
3 10 13 1 10 -8 17 -7 25 1 9 9 12 9 12 -1 0 -10 3 -11 14 -2 11 9 15 9 19 -1
4 -10 6 -10 6 1 1 11 4 11 16 1 12 -10 15 -10 15 1 0 10 3 10 11 2 9 -9 17 -8
34 3 16 11 25 12 30 4 5 -8 11 -7 22 2 15 13 42 20 80 21 12 1 20 4 17 8 -3 6
23 16 63 25 7 1 20 10 29 19 9 9 21 14 27 12 6 -2 21 7 35 20 14 13 31 23 38
23 8 0 13 3 13 8 -3 19 2 25 11 12 8 -13 10 -13 10 1 0 9 11 22 25 29 14 7 25
16 25 20 0 3 16 23 35 44 19 21 35 44 35 50 0 6 8 19 18 28 23 22 36 41 40 57
1 7 9 20 17 28 18 18 19 27 3 17 -7 -4 -4 3 7 15 11 13 19 24 17 25 -6 2 10
60 20 72 5 7 8 16 7 20 -1 5 0 11 1 14 3 9 10 45 12 68 1 12 5 22 8 22 3 0 4
20 3 45 -1 26 3 45 9 45 6 0 6 6 -2 15 -7 8 -8 15 -3 15 11 0 11 29 -1 48 -4
7 -2 12 6 12 8 0 9 3 3 8 -12 9 -13 14 -16 90 -1 34 -6 62 -10 62 -4 0 -6 9
-4 20 2 11 -2 20 -8 20 -7 0 -6 4 3 10 12 8 12 10 1 10 -8 0 -11 3 -8 7 4 3 2
12 -4 20 -6 7 -8 13 -3 13 5 0 2 5 -6 10 -13 9 -13 10 0 10 13 0 13 2 1 9 -8
5 -15 21 -17 37 -2 15 -7 30 -12 33 -5 3 -8 14 -6 24 1 9 -2 17 -7 17 -6 0 -7
4 -4 10 3 5 1 10 -5 10 -6 0 -9 4 -5 9 3 6 -3 14 -12 20 -10 6 -14 11 -9 11 5
0 3 7 -4 15 -6 8 -8 20 -4 26 4 8 3 9 -4 5 -7 -4 -12 -1 -12 8 0 9 -4 16 -10
16 -5 0 -10 5 -10 11 0 6 -7 17 -15 26 -8 8 -13 18 -10 23 3 5 -4 11 -15 15
-11 4 -18 10 -15 15 3 5 -1 12 -8 17 -8 4 -19 18 -26 31 -7 12 -16 20 -21 17
-5 -3 -11 4 -15 15 -3 11 -14 20 -22 20 -9 0 -14 3 -10 6 8 8 -25 44 -35 38
-4 -3 -8 2 -8 10 0 9 -4 16 -10 16 -5 0 -19 10 -31 23 -12 12 -19 15 -15 7 5
-9 2 -8 -7 3 -8 9 -18 17 -22 17 -22 0 -43 43 -40 83 1 23 -2 50 -7 61 -7 13
-7 16 1 12 14 -9 14 0 1 25 -6 10 -20 19 -30 19 -11 0 -20 5 -20 10 0 6 -9 10
-20 10 -11 0 -20 5 -20 11 0 5 -4 8 -9 4 -5 -3 -15 1 -23 8 -7 7 -20 12 -28
12 -8 0 -18 4 -22 10 -11 16 -31 13 -50 -8 -9 -10 -21 -16 -27 -13 -5 3 -11 1
-13 -6 -2 -6 -11 -12 -19 -13 -12 -2 -14 16 -14 109 1 123 -4 133 -71 158 -19
7 -34 16 -34 20 0 4 -3 8 -7 7 -18 -3 -52 14 -47 22 3 5 -2 6 -10 3 -9 -3 -16
-1 -16 5 0 6 -6 11 -14 11 -18 0 -67 25 -61 31 2 3 -6 5 -19 5 -12 0 -28 -6
-35 -14z"/>
<path d="M1440 1777 c0 -10 -4 -16 -9 -13 -4 3 -13 -6 -19 -19 -7 -14 -16 -25
-22 -25 -6 0 -8 -4 -5 -10 3 -6 -4 -10 -17 -10 -19 0 -20 -2 -8 -10 13 -8 12
-11 -6 -16 -12 -3 -27 -16 -34 -30 -7 -13 -16 -21 -20 -19 -5 3 -10 -1 -12 -8
-5 -13 27 -72 39 -72 5 0 7 -3 6 -7 -2 -5 2 -8 9 -8 14 0 128 -119 128 -134 0
-5 3 -7 6 -3 8 7 34 -17 34 -32 0 -6 7 -11 15 -11 8 0 15 -4 15 -8 0 -10 93
-8 108 2 6 3 13 2 16 -3 10 -15 41 -5 40 12 -1 9 3 15 10 14 6 -1 10 4 8 11
-1 8 2 11 7 8 5 -3 15 2 22 11 12 14 12 16 -1 8 -15 -8 -1 9 50 62 14 15 19
23 12 19 -11 -7 -11 -4 -1 12 7 12 18 20 23 19 6 -1 10 4 8 11 -1 6 2 12 7 12
8 0 49 57 87 122 6 11 15 19 20 19 5 -1 9 2 9 7 0 4 10 17 23 30 19 19 23 20
29 7 3 -9 12 -14 21 -10 13 5 13 3 1 -12 -9 -11 -10 -14 -2 -9 12 6 33 -11 69
-56 6 -7 23 -22 37 -33 15 -11 27 -26 27 -34 0 -8 3 -12 6 -9 6 7 52 -34 47
-43 -1 -4 8 -10 22 -13 14 -4 25 -13 25 -22 0 -8 5 -12 10 -9 6 3 10 -1 10
-10 0 -9 5 -13 10 -10 16 10 12 72 -6 79 -8 3 -12 11 -8 17 5 8 3 9 -5 4 -13
-8 -71 46 -71 66 0 6 -4 7 -10 4 -5 -3 -10 -2 -10 4 0 5 -9 13 -20 16 -11 4
-18 11 -15 16 4 5 -1 9 -10 9 -9 0 -13 5 -10 10 3 6 0 10 -7 10 -7 0 -22 11
-32 25 -10 13 -22 22 -27 19 -5 -3 -6 3 -2 13 3 10 2 15 -2 11 -5 -5 -15 2
-23 13 -12 17 -16 18 -23 8 -7 -11 -9 -11 -9 -1 0 9 -5 10 -19 3 -10 -6 -21
-8 -25 -4 -10 10 -76 11 -76 1 0 -6 -8 -7 -17 -3 -24 10 -93 13 -98 5 -3 -4
-17 -5 -32 -3 -66 10 -93 10 -93 1 0 -6 -8 -7 -17 -3 -24 10 -93 13 -98 5 -5
-8 -37 -6 -52 3 -6 4 -15 2 -19 -4 -4 -8 -9 -7 -15 2 -7 11 -9 10 -9 -4z"/>
<path d="M857 1613 c-4 -3 -52 -7 -108 -7 -92 -2 -103 -4 -120 -24 -10 -13
-20 -23 -23 -22 -18 1 -19 -1 -6 -10 13 -8 12 -10 -3 -10 -10 0 -16 -4 -13 -8
3 -5 -6 -15 -19 -22 -13 -7 -22 -17 -19 -22 3 -4 0 -8 -5 -8 -11 0 -18 -6 -89
-83 -24 -26 -40 -47 -37 -47 4 0 -12 -16 -35 -35 -23 -19 -38 -35 -33 -35 4
-1 -3 -7 -17 -15 -14 -8 -22 -14 -18 -15 3 0 -13 -20 -37 -44 -24 -25 -40 -47
-37 -50 3 -3 -3 -6 -13 -6 -10 0 -16 -3 -13 -6 3 -3 -10 -21 -30 -40 -19 -19
-31 -34 -26 -35 5 0 28 -1 51 -3 25 -1 43 2 43 8 0 7 3 8 8 1 4 -6 55 -10 117
-10 62 0 113 4 117 10 5 7 8 7 8 0 0 -6 46 -9 120 -9 l120 2 29 31 c15 16 26
32 24 35 -3 2 5 9 16 16 12 6 18 16 15 22 -4 7 -3 8 4 4 6 -4 17 4 24 18 7 14
18 26 23 28 6 2 9 6 8 10 -2 5 4 8 12 8 8 0 15 7 15 16 0 8 5 12 10 9 6 -3 10
2 10 11 0 10 3 14 6 11 8 -7 44 31 44 45 0 5 5 6 10 3 10 -6 15 9 10 30 -1 6
1 7 5 3 8 -7 39 21 73 67 13 16 25 29 27 28 8 -4 55 44 55 56 0 7 5 9 10 6 6
-3 10 1 10 9 0 9 4 16 10 16 5 0 16 14 25 30 16 31 9 39 -14 18 -9 -9 -12 -9
-7 -1 4 8 -4 11 -26 9 -18 -1 -41 2 -52 7 -12 6 -16 5 -12 -1 3 -5 -5 -9 -19
-9 -14 0 -22 4 -19 9 4 6 -3 5 -14 -1 -14 -8 -23 -8 -27 -1 -5 7 -11 8 -19 1
-7 -6 -17 -6 -26 -1 -8 6 -19 10 -25 10 -5 0 -4 -4 3 -9 8 -4 -10 -7 -42 -7
-30 1 -52 4 -49 9 5 9 -1 9 -10 0z"/>
<path d="M1970 1401 c0 -5 -8 -8 -17 -7 -12 1 -19 -9 -23 -29 -8 -40 -2 -55
22 -55 12 0 17 -4 12 -12 -5 -7 -3 -8 7 -2 8 4 20 9 28 11 23 3 42 43 21 43
-6 0 -6 10 1 27 6 15 7 25 4 21 -4 -4 -18 -3 -31 2 -13 5 -24 6 -24 1z"/>
<path d="M2055 1400 c3 -5 1 -10 -5 -10 -7 0 -9 -7 -6 -16 3 -8 2 -12 -4 -9
-6 3 -10 1 -10 -4 0 -6 4 -11 8 -11 5 0 9 -7 10 -15 1 -8 3 -22 4 -30 1 -10 5
-11 13 -5 12 10 33 9 54 -4 9 -6 12 -5 7 2 -3 6 2 15 11 21 10 6 13 11 7 11
-5 0 -10 15 -10 33 1 20 -3 31 -11 30 -7 -2 -13 3 -13 10 0 8 -4 7 -10 -3 -9
-13 -10 -13 -10 0 0 13 -1 13 -10 0 -6 -10 -10 -11 -10 -2 0 6 -5 12 -11 12
-5 0 -7 -4 -4 -10z"/>
<path d="M2006 1282 c-3 -5 -22 -8 -43 -7 -38 2 -38 1 -36 -34 1 -20 2 -39 2
-42 1 -10 101 -7 101 2 0 5 -4 9 -8 9 -4 0 -7 18 -6 40 1 40 -1 47 -10 32z"/>
<path d="M2037 1259 c-12 -11 -17 -19 -12 -18 22 3 29 -2 16 -10 -24 -15 8
-37 54 -37 39 1 39 1 40 41 1 40 0 40 -37 41 -25 1 -47 -5 -61 -17z"/>
<path d="M1102 1215 c-6 -14 -8 -25 -3 -25 5 0 8 -8 7 -17 -1 -15 7 -18 44
-18 44 0 45 1 44 31 0 19 4 31 13 31 7 0 13 -4 13 -9 0 -4 -6 -8 -12 -8 -10 0
-10 -2 0 -8 7 -5 10 -15 7 -24 -5 -12 4 -15 45 -15 46 -1 51 1 47 18 -3 10 -1
21 4 24 16 10 -23 43 -45 39 -30 -7 -113 -6 -135 1 -12 4 -21 -2 -29 -20z"/>
<path d="M1937 1155 c-11 -8 -12 -16 -6 -28 7 -12 6 -17 -2 -17 -8 0 -9 -3 0
-13 6 -8 8 -17 4 -20 -10 -10 6 -8 27 3 13 7 21 7 25 0 4 -6 12 -7 18 -3 16
10 80 10 88 0 12 -16 37 5 43 36 8 39 -2 49 -52 51 -29 1 -39 -2 -38 -12 1 -8
-5 -17 -13 -20 -8 -2 -11 -1 -8 4 14 25 -57 40 -86 19z m106 -51 c-4 -11 -9
-12 -19 -3 -18 15 -18 14 5 16 14 1 18 -3 14 -13z"/>
<path d="M1255 1133 c6 -13 -2 -16 -37 -16 -10 0 -15 -4 -11 -11 4 -6 6 -23 5
-39 -2 -23 1 -28 13 -23 9 3 14 2 11 -2 -3 -5 12 -8 33 -8 29 0 38 4 36 16 -1
8 2 21 8 28 6 8 6 12 -1 12 -6 0 -9 6 -6 14 7 17 -12 31 -21 16 -5 -7 -12 -5
-22 7 -8 10 -12 12 -8 6z"/>
<path d="M1104 1104 c-4 -14 -4 -28 0 -31 3 -3 0 -13 -7 -21 -9 -13 -9 -14 1
-8 6 4 12 3 12 -1 0 -5 18 -9 39 -9 22 0 38 3 35 8 -3 4 -1 8 4 8 14 0 6 61
-9 71 -19 12 -32 11 -24 -1 4 -7 -2 -7 -19 0 -23 8 -26 7 -32 -16z"/>
</g>
</svg>
